<svg xmlns="http://www.w3.org/2000/svg" xmlns:xlink="http://www.w3.org/1999/xlink" id="Layer_1" x="0px" y="0px" viewBox="0 0 343.1 244.9" style="enable-background:new 0 0 343.1 244.9;" xml:space="preserve">
<style xmlns="http://www.w3.org/2000/svg">.draw .p{fill:none;stroke-dasharray:100,10,200,10;stroke-dashoffset:1000;-webkit-animation:d 10000ms linear infinite;-moz-animation:d 10000ms linear infinite;-ms-animation:d 10000ms linear infinite;-o-animation:d 10000ms linear infinite;animation:d 10000ms linear infinite}@-webkit-keyframes d{100%{stroke-dashoffset:0}}@-moz-keyframes d{100%{stroke-dashoffset:0}}@-ms-keyframes d{100%{stroke-dashoffset:0}}@-o-keyframes d{100%{stroke-dashoffset:0}}@keyframes d{100%{stroke-dashoffset:0}}.r1{offset-path:path("M272.4,4.3l6.5-6.6L272.4,4.3l-26.2-1l-96.5,97.9l-22.3-1l-29.5,30.7l-30.6-1l-61.4,62")}.r2{offset-path:path("M143.3,193.5l34.4-35.1l1-34.4L284.3,18.4v-20")}.r3{offset-path:path("M128.6,237.3l23-0.5l42.6-41.2v-47.7L289,53.1h27.6l31.9-33.3")}.r{animation:3s motion-path linear infinite;}@keyframes motion-path{100% {motion-offset: 100%;offset-distance: 100%}}}</style>
<linearGradient id="SVGID_1_" gradientUnits="userSpaceOnUse" x1="0" y1="244.9" x2="0" y2="0">
	<stop offset="0" style="stop-color:#2FD4C0"></stop>
	<stop offset="1" style="stop-color:#1989FB"></stop>
</linearGradient>
	<clipPath id="circuitboard">
		<path class="st0" d="M275.2,1.8l-50.9,50.9l-0.7-0.7l50.2-50.2H275.2z M225.3,53.6c-0.7,0.7-1.9,0.7-2.7,0c-0.7-0.7-0.7-1.9,0-2.7    c0.7-0.7,1.9-0.7,2.7,0C226.1,51.7,226.1,52.9,225.3,53.6z M73,154.6l54.4-54.4h21.9l96.9-96.9h26.2v1h-25.8l-96.9,96.9h-21.9    l-54.1,54.1L73,154.6z M74.7,156.2c-0.7,0.7-1.9,0.7-2.7,0c-0.7-0.7-0.7-1.9,0-2.7c0.7-0.7,1.9-0.7,2.7,0S75.5,155.4,74.7,156.2z     M6.9,190.3l60.4-60.4h30.6v1H67.7L7.6,191L6.9,190.3z M8.6,191.9c-0.7,0.7-1.9,0.7-2.7,0c-0.7-0.7-0.7-1.9,0-2.7    c0.7-0.7,1.9-0.7,2.7,0C9.3,190,9.3,191.1,8.6,191.9z M348.5,134.3v1.4l-43.9,44l-0.8-0.7L348.5,134.3z M305.6,180.6    c-0.7,0.7-1.9,0.7-2.7,0c-0.7-0.7-0.7-1.9,0-2.7c0.7-0.7,1.9-0.7,2.7,0C306.3,178.6,306.3,179.8,305.6,180.6z M268.6,246.7    l59.3-59.3v-32.5h1v32.9L270,246.7H268.6z M151.6,236.8l41.6-41.6v-47.7l95.4-95.4h27.6l32.3-32.3v1.4l-31.9,31.9H289l-94.8,94.8    v47.7L152,237.8h-21.6v-1H151.6z M130.5,239.2c-1,0-1.9-0.8-1.9-1.9c0-1,0.8-1.9,1.9-1.9c1.1,0,1.9,0.8,1.9,1.9    C132.4,238.4,131.6,239.2,130.5,239.2z M331.7,105.8L216.2,221.4H207l-25.4,25.3h-1.4l26.4-26.3h9.2l114.9-115V71.5l17.8-17.8v1.4    l-16.8,16.8V105.8z M210,175.6l17.7-17.6v-28.8l77-77l0.7,0.7l-76.7,76.7v28.8L211,176.1v9.4h-1V175.6z M212.4,185.4    c0,1-0.8,1.9-1.9,1.9c-1,0-1.9-0.8-1.9-1.9s0.8-1.9,1.9-1.9C211.6,183.5,212.4,184.4,212.4,185.4z M182,224.4l18.2-18.1h17    l22.1-22.2v-21.9l16.9-16.9h11.7l62.8-62.8l0.7,0.7l-63.1,63.1h-11.6l-16.4,16.3v21.9l-22.7,22.8h-17l-17.8,17.8L182,224.4z     M183.8,226.1c-0.7,0.7-1.9,0.7-2.7,0c-0.7-0.7-0.7-1.9,0-2.7c0.7-0.7,1.9-0.7,2.7,0C184.5,224.1,184.5,225.3,183.8,226.1z     M266.3,111.1h12L348.5,41v1.4l-69.8,69.7h-12l-15.5,15.6l-0.7-0.7L266.3,111.1z M252.2,128.6c-0.7,0.7-1.9,0.7-2.7,0    c-0.7-0.7-0.7-1.9,0-2.7c0.7-0.7,1.9-0.7,2.7,0C252.9,126.7,252.9,127.9,252.2,128.6z M303.9,29.5l27.7-27.7h1.4l-28.7,28.7h-19.8    l-66,66l-0.7-0.8l66.3-66.2H303.9z M219.6,97.4c-0.7,0.7-1.9,0.7-2.7,0c-0.7-0.7-0.7-1.9,0-2.7c0.7-0.7,1.9-0.7,2.7,0    C220.3,95.4,220.3,96.6,219.6,97.4z M177.7,123.6L283.3,18V1.8h1v16.6L178.7,124v34.9L145,192.6l-0.7-0.7l33.4-33.5V123.6z     M146,193.5c-0.7,0.7-1.9,0.7-2.7,0c-0.7-0.7-0.7-1.9,0-2.7c0.7-0.7,1.9-0.7,2.7,0C146.8,191.6,146.8,192.8,146,193.5z M89.6,207.9    l37.2-37.2v-24.5l57.1-57.1V65.6h1v24l-57.1,57v24.5l-37.5,37.6L89.6,207.9z M91.3,209.6c-0.7,0.7-1.9,0.7-2.7,0    c-0.7-0.7-0.7-1.9,0-2.7c0.7-0.7,1.9-0.7,2.7,0S92.1,208.8,91.3,209.6z M79.3,183.9l27.6-27.6V134l33.8-33.7l0.7,0.7l-33.5,33.5    v22.2L80,184.6L79.3,183.9z M81.1,185.5c-0.7,0.7-1.9,0.7-2.7,0c-0.7-0.7-0.7-1.9,0-2.7c0.7-0.7,1.9-0.7,2.7,0    C81.8,183.6,81.8,184.8,81.1,185.5z M118,222.1h26l23-23v-29.5h1v29.9l-23.6,23.6H118V222.1z M118.1,224.5c-1,0-1.9-0.8-1.9-1.9    s0.8-1.9,1.9-1.9c1,0,1.9,0.8,1.9,1.9S119.2,224.5,118.1,224.5z M348.5,78.5v1.4l-16.9,16.9l-0.7-0.7L348.5,78.5z M250.2,243    l-3.7,3.7h-1.4l4.1-4.1v-26.4l50.1-50v-29.3h1v29.7l-50.1,50.1V243z M280.3,218.4l16.4-16.4h17.1v1h-16.7L281,219.1L280.3,218.4z     M280.8,216.8c1,0,1.9,0.9,1.9,1.9s-0.9,1.9-1.9,1.9s-1.9-0.9-1.9-1.9S279.8,216.8,280.8,216.8z M219.3,246.7l14.4-14.4v-29.7h1    v30.1l-14,14H219.3z M131.8,186.8l27.3-27.3v-45.2h1v45.6l-27.6,27.6L131.8,186.8z M133.5,188.4c-0.7,0.7-1.9,0.7-2.7,0    c-0.7-0.7-0.7-1.9,0-2.7c0.7-0.7,1.9-0.7,2.7,0C134.2,186.5,134.2,187.7,133.5,188.4z"></path>
	</clipPath>

	<g class="bg" clip-path="url(#circuitboard)" stroke="#fff" fill="#fff">
		<path d="M272.4,4.3l6.5-6.6L272.4,4.3l-26.2-1l-96.5,97.9l-22.3-1l-29.5,30.7l-30.6-1l-61.4,62"></path>
		<path d="M275.2,1.8l-52.6,51.8"></path>
		<path d="M275.2,1.8l-2.8,2.5h-25.8l-96.9,96.9l-22.3-1l-55.4,56"></path>
		<path d="M276.9-1.6l-4.5,5.9h-25.8l-96.9,96.9l-9-0.9l-32.8,34.2v22.2l-29.5,28.8"></path>
		<path d="M276.9-1.6l-4.5,5.9h-25.8l-62.7,61.3l1,24l-58.1,56.6v24.5l-38.2,38.9"></path>
		<path d="M278.9-1.6l-6.5,5.9h-25.8l-62.7,61.3l1,24l-25.8,24.7l1,45.6l-29.3,28.5"></path>

		<path d="M112.7,222.1H144l23-23l1-29.5l9.7-11.2v-34.8L284.3,18.4V1.8"></path>
		<path d="M143.3,193.5l34.4-35.1l1-34.4L284.3,18.4v-20"></path>
		
		<path d="M335.8-1.6l-31.9,31.1h-19.8l-67.2,67.9"></path>
		<path d="M128.6,237.3l23-0.5l42.6-41.2v-47.7L289,53.1h27.6l31.9-33.3"></path>
		<path d="M348.5,19.8l-31.9,33.3l-11.9-0.9l-77,77V158L210,175.6l0.5,11.7"></path>

		<path d="M348.5,41l-70.2,70.1h-12l-16.8,17.5"></path>
		<path d="M352.1,52.7l-20.4,19.2v33.9L216.2,221.4H207l-26.8,25.3"></path>
		<path d="M181.1,226.1l19.5-18.8l16.6-1l22.1-22.2v-21.9l16.9-16.9h11.7l63.5-62.1l-0.5,12.9l20.8-19.2"></path>
		<path d="M234.7,202.6v30.1l-14,14"></path>
		<path d="M348.5,134.3l-19.9,20.3l-25.7,26"></path>
		<path d="M328.6,154.6l-0.7,32.8l-59.3,59.3"></path>
		<path d="M348.5,134.3l-20.6,20.6l1,32.9L313.8,202h-17.7L278,222.1"></path>
		<path d="M299.3,136.9v29.3l-50.1,50l1,26.8l-5.1,3.7"></path>
	</g>

	<g class="draw" clip-path="url(#circuitboard)" fill="none" stroke="url(#SVGID_1_)" stroke-width="5">
		<path d="M272.4,4.3l6.5-6.6L272.4,4.3l-26.2-1l-96.5,97.9l-22.3-1l-29.5,30.7l-30.6-1l-61.4,62"></path>
		<path class="p" d="M275.2,1.8l-52.6,51.8"></path>
		<path class="p" d="M275.2,1.8l-2.8,2.5h-25.8l-96.9,96.9l-22.3-1l-55.4,56"></path>
		<path class="p" d="M276.9-1.6l-4.5,5.9h-25.8l-96.9,96.9l-9-0.9l-32.8,34.2v22.2l-29.5,28.8"></path>
		<path class="p" d="M276.9-1.6l-4.5,5.9h-25.8l-62.7,61.3l1,24l-58.1,56.6v24.5l-38.2,38.9"></path>
		<path class="p" d="M278.9-1.6l-6.5,5.9h-25.8l-62.7,61.3l1,24l-25.8,24.7l1,45.6l-29.3,28.5"></path>

		<path class="p" d="M112.7,222.1H144l23-23l1-29.5l9.7-11.2v-34.8L284.3,18.4V1.8"></path>
		<path d="M143.3,193.5l34.4-35.1l1-34.4L284.3,18.4v-20"></path>
		
		<path class="p" d="M335.8-1.6l-31.9,31.1h-19.8l-67.2,67.9"></path>
		<path d="M128.6,237.3l23-0.5l42.6-41.2v-47.7L289,53.1h27.6l31.9-33.3"></path>
		<path class="p" d="M348.5,19.8l-31.9,33.3l-11.9-0.9l-77,77V158L210,175.6l0.5,11.7"></path>

		<path class="p" d="M348.5,41l-70.2,70.1h-12l-16.8,17.5"></path>
		<path class="p" d="M352.1,52.7l-20.4,19.2v33.9L216.2,221.4H207l-26.8,25.3"></path>
		<path class="p" d="M181.1,226.1l19.5-18.8l16.6-1l22.1-22.2v-21.9l16.9-16.9h11.7l63.5-62.1l-0.5,12.9l20.8-19.2"></path>
		<path class="p" d="M234.7,202.6v30.1l-14,14"></path>
		<path class="p" d="M348.5,134.3l-19.9,20.3l-25.7,26"></path>
		<path class="p" d="M328.6,154.6l-0.7,32.8l-59.3,59.3"></path>
		<path class="p" d="M348.5,134.3l-20.6,20.6l1,32.9L313.8,202h-17.7L278,222.1"></path>
		<path class="p" d="M299.3,136.9v29.3l-50.1,50l1,26.8l-5.1,3.7"></path>	
	</g>

	<g class="draw" clip-path="url(#circuitboard)">
		<circle class="r r1" r="4" fill="#fff"></circle>

		<circle class="r r2" r="4" fill="#fff"></circle>

		<circle class="r r3" r="4" fill="#fff"></circle>
	</g>
</svg>