<svg xmlns="http://www.w3.org/2000/svg" viewBox="0 0 260.58 186.85"><defs><style>.cls-1{fill:#625ea9;}.cls-2{fill:#61c29f;}</style></defs><title>Asset 1</title><g id="Layer_2" data-name="Layer 2"><g id="Layer_1-2" data-name="Layer 1"><path class="cls-1" d="M195.16,34.38c14.48,1.55,27.35,5.75,38.82,13.47,16.89,11.38,27.37,26.71,26.56,47.92-.74,19.19-10.88,33.07-26,43.76-9.28,6.54-9.75,7.73-3.19,17.12,3,4.31,6.89,8,10.12,13.34-6-1.73-12.21-2.88-17.86-5.36s-10.75-6.53-16.28-9.52c-2.3-1.25-5.19-2.36-7.68-2.13-9.12.86-18.17,1.69-27.71-.53C214,120,225.56,81.82,195.16,34.38Z"/><path class="cls-2" d="M184.59,33.8c-22-23.63-50-32.95-85.43-33.8-4.61.57-13.09,1.2-21.4,2.74-24.35,4.54-45.3,15.55-61,35C.08,58.42-4.43,81.71,4.49,107.07c6.39,18.19,18.78,31.57,34.91,41.58,4.3,2.66,4.72,5.28,2.34,9.34a62.05,62.05,0,0,1-19.25,20.59c-1.65,1.1-2.15,3.92-3.18,5.95,2,.81,4,2.36,5.89,2.32,16.07-.32,31.23-4.93,43.9-14.38,8.58-6.4,16.75-7.05,26.66-6.5C128,167.75,157,159.14,181,136.58,211.28,108,212.85,64.17,184.59,33.8Z"/></g></g></svg>